<svg xmlns="http://www.w3.org/2000/svg" xmlns:xlink="http://www.w3.org/1999/xlink" width="2000" zoomAndPan="magnify" viewBox="0 0 1500 1499.999933" height="2000" preserveAspectRatio="xMidYMid meet" version="1.0"><defs><clipPath id="b9566ad63a"><path d="M 224.425781 895 L 1275.925781 895 L 1275.925781 1137 L 224.425781 1137 Z M 224.425781 895 " clip-rule="nonzero"/></clipPath><clipPath id="a4c1d5e8cb"><path d="M 276 272.121094 L 1224 272.121094 L 1224 934 L 276 934 Z M 276 272.121094 " clip-rule="nonzero"/></clipPath><clipPath id="054eb5dbb2"><path d="M 323 315 L 505 315 L 505 484 L 323 484 Z M 323 315 " clip-rule="nonzero"/></clipPath><clipPath id="8328bb496e"><path d="M 318.289062 448.089844 L 473.214844 310.730469 L 509.238281 351.355469 L 354.3125 488.71875 Z M 318.289062 448.089844 " clip-rule="nonzero"/></clipPath><clipPath id="f223667f26"><path d="M 327.566406 440.148438 L 464.347656 318.871094 C 466.730469 316.761719 469.851562 315.683594 473.027344 315.875 C 476.207031 316.0625 479.175781 317.507812 481.289062 319.890625 L 501.25 342.402344 C 503.359375 344.785156 504.4375 347.90625 504.246094 351.082031 C 504.058594 354.261719 502.613281 357.230469 500.230469 359.34375 L 363.449219 480.617188 C 361.066406 482.730469 357.945312 483.808594 354.769531 483.617188 C 351.589844 483.425781 348.621094 481.980469 346.507812 479.601562 L 326.550781 457.085938 C 324.4375 454.707031 323.359375 451.582031 323.550781 448.40625 C 323.742188 445.230469 325.1875 442.257812 327.566406 440.148438 Z M 327.566406 440.148438 " clip-rule="nonzero"/></clipPath><clipPath id="e5c7f115a0"><path d="M 0.28125 0.601562 L 181.480469 0.601562 L 181.480469 168.839844 L 0.28125 168.839844 Z M 0.28125 0.601562 " clip-rule="nonzero"/></clipPath><clipPath id="c6e246c1e6"><path d="M -4.710938 133.089844 L 150.214844 -4.269531 L 186.238281 36.355469 L 31.3125 173.71875 Z M -4.710938 133.089844 " clip-rule="nonzero"/></clipPath><clipPath id="7ad78f09c1"><path d="M 4.566406 125.148438 L 141.347656 3.871094 C 143.730469 1.761719 146.851562 0.683594 150.027344 0.875 C 153.207031 1.0625 156.175781 2.507812 158.289062 4.890625 L 178.25 27.402344 C 180.359375 29.785156 181.4375 32.90625 181.246094 36.082031 C 181.058594 39.261719 179.613281 42.230469 177.230469 44.34375 L 40.449219 165.617188 C 38.066406 167.730469 34.945312 168.808594 31.769531 168.617188 C 28.589844 168.425781 25.621094 166.980469 23.507812 164.601562 L 3.550781 142.085938 C 1.4375 139.707031 0.359375 136.582031 0.550781 133.40625 C 0.742188 130.230469 2.1875 127.257812 4.566406 125.148438 Z M 4.566406 125.148438 " clip-rule="nonzero"/></clipPath><clipPath id="4591dff4d1"><rect x="0" width="182" y="0" height="169"/></clipPath><clipPath id="140bd1662d"><path d="M 995 315 L 1176 315 L 1176 486 L 995 486 Z M 995 315 " clip-rule="nonzero"/></clipPath><clipPath id="fbb602a472"><path d="M 1027.417969 310.613281 L 1180.371094 450.164062 L 1143.773438 490.277344 L 990.820312 350.726562 Z M 1027.417969 310.613281 " clip-rule="nonzero"/></clipPath><clipPath id="f39b5af72c"><path d="M 1036.292969 319 L 1171.335938 442.207031 C 1173.6875 444.355469 1175.089844 447.34375 1175.234375 450.523438 C 1175.382812 453.703125 1174.257812 456.8125 1172.113281 459.160156 L 1151.835938 481.386719 C 1149.691406 483.738281 1146.699219 485.140625 1143.519531 485.289062 C 1140.339844 485.433594 1137.234375 484.308594 1134.882812 482.164062 L 999.839844 358.957031 C 997.488281 356.8125 996.085938 353.820312 995.941406 350.640625 C 995.796875 347.460938 996.917969 344.355469 999.0625 342.003906 L 1019.34375 319.777344 C 1021.488281 317.425781 1024.476562 316.023438 1027.65625 315.878906 C 1030.835938 315.730469 1033.945312 316.855469 1036.292969 319 Z M 1036.292969 319 " clip-rule="nonzero"/></clipPath><clipPath id="f91474dd35"><path d="M 0.761719 0.601562 L 180.519531 0.601562 L 180.519531 170.519531 L 0.761719 170.519531 Z M 0.761719 0.601562 " clip-rule="nonzero"/></clipPath><clipPath id="9638cb3dc3"><path d="M 32.417969 -4.386719 L 185.371094 135.164062 L 148.773438 175.277344 L -4.179688 35.726562 Z M 32.417969 -4.386719 " clip-rule="nonzero"/></clipPath><clipPath id="0648c7788e"><path d="M 41.292969 4 L 176.335938 127.207031 C 178.6875 129.355469 180.089844 132.34375 180.234375 135.523438 C 180.382812 138.703125 179.257812 141.8125 177.113281 144.160156 L 156.835938 166.386719 C 154.691406 168.738281 151.699219 170.140625 148.519531 170.289062 C 145.339844 170.433594 142.234375 169.308594 139.882812 167.164062 L 4.839844 43.957031 C 2.488281 41.8125 1.085938 38.820312 0.941406 35.640625 C 0.796875 32.460938 1.917969 29.355469 4.0625 27.003906 L 24.34375 4.777344 C 26.488281 2.425781 29.476562 1.023438 32.65625 0.878906 C 35.835938 0.730469 38.945312 1.855469 41.292969 4 Z M 41.292969 4 " clip-rule="nonzero"/></clipPath><clipPath id="357620a175"><rect x="0" width="181" y="0" height="171"/></clipPath><clipPath id="cdb3f2f743"><path d="M 646.597656 231.917969 L 853.597656 231.917969 L 853.597656 299.164062 L 646.597656 299.164062 Z M 646.597656 231.917969 " clip-rule="nonzero"/></clipPath><clipPath id="e080bb4437"><path d="M 658.597656 231.917969 L 841.402344 231.917969 C 844.582031 231.917969 847.636719 233.179688 849.886719 235.429688 C 852.136719 237.683594 853.402344 240.734375 853.402344 243.917969 L 853.402344 287.164062 C 853.402344 290.347656 852.136719 293.402344 849.886719 295.652344 C 847.636719 297.902344 844.582031 299.164062 841.402344 299.164062 L 658.597656 299.164062 C 655.417969 299.164062 652.363281 297.902344 650.113281 295.652344 C 647.863281 293.402344 646.597656 290.347656 646.597656 287.164062 L 646.597656 243.917969 C 646.597656 240.734375 647.863281 237.683594 650.113281 235.429688 C 652.363281 233.179688 655.417969 231.917969 658.597656 231.917969 Z M 658.597656 231.917969 " clip-rule="nonzero"/></clipPath><clipPath id="56dea75c2f"><path d="M 0.597656 0.917969 L 207.441406 0.917969 L 207.441406 68.164062 L 0.597656 68.164062 Z M 0.597656 0.917969 " clip-rule="nonzero"/></clipPath><clipPath id="d8df1843f2"><path d="M 12.597656 0.917969 L 195.402344 0.917969 C 198.582031 0.917969 201.636719 2.179688 203.886719 4.429688 C 206.136719 6.683594 207.402344 9.734375 207.402344 12.917969 L 207.402344 56.164062 C 207.402344 59.347656 206.136719 62.402344 203.886719 64.652344 C 201.636719 66.902344 198.582031 68.164062 195.402344 68.164062 L 12.597656 68.164062 C 9.417969 68.164062 6.363281 66.902344 4.113281 64.652344 C 1.863281 62.402344 0.597656 59.347656 0.597656 56.164062 L 0.597656 12.917969 C 0.597656 9.734375 1.863281 6.683594 4.113281 4.429688 C 6.363281 2.179688 9.417969 0.917969 12.597656 0.917969 Z M 12.597656 0.917969 " clip-rule="nonzero"/></clipPath><clipPath id="7a467095c3"><rect x="0" width="208" y="0" height="69"/></clipPath></defs><rect x="-150" width="1800" fill="#ffffff" y="-149.999993" height="1799.99992" fill-opacity="1"/><rect x="-150" width="1800" fill="#1e293b" y="-149.999993" height="1799.99992" fill-opacity="1"/><g clip-path="url(#b9566ad63a)"><path fill="#29538d" d="M 224.429688 1033.820312 C 224.429688 1033.820312 559.25 797.417969 873.78125 954.679688 C 1188.308594 1111.941406 1275.566406 895.832031 1275.566406 895.832031 C 1275.566406 895.832031 1196.023438 1130.355469 987.015625 1064.40625 C 778.003906 998.457031 646.507812 839.011719 224.429688 1033.820312 Z M 320.824219 1049.035156 C 718.3125 806.789062 937.179688 1202.941406 1140.632812 1085.5625 C 928.660156 1267.867188 789.441406 892.691406 320.824219 1049.035156 Z M 320.824219 1049.035156 " fill-opacity="1" fill-rule="evenodd"/></g><path fill="#29538d" d="M 949.378906 1174.652344 C 888.78125 1202.851562 821.238281 1218.625 749.996094 1218.625 C 615.792969 1218.625 494.652344 1162.742188 408.539062 1072.988281 C 518.75 1047.609375 622.941406 1051.664062 735.878906 1091.441406 C 784.664062 1108.621094 830.769531 1130.765625 878.507812 1150.289062 C 901.53125 1159.707031 925.179688 1168.457031 949.375 1174.652344 Z M 949.378906 1174.652344 " fill-opacity="1" fill-rule="evenodd"/><path fill="#06b6d4" d="M 950.867188 799.488281 C 994.972656 801.285156 1029.726562 832.707031 1028.492188 869.664062 C 1027.257812 906.621094 990.5 935.121094 946.394531 933.324219 C 902.289062 931.527344 867.53125 900.109375 868.765625 863.152344 C 870.003906 826.195312 906.757812 797.691406 950.867188 799.488281 Z M 276.171875 954.679688 C 276.171875 954.679688 454.246094 804.902344 659.679688 796.222656 C 834.511719 556.972656 1067.917969 658.898438 1067.917969 658.898438 C 961.730469 639.742188 725.964844 685.929688 848.414062 916.125 C 848.414062 916.125 580.269531 774.65625 276.171875 954.679688 Z M 276.171875 954.679688 " fill-opacity="1" fill-rule="evenodd"/><g clip-path="url(#a4c1d5e8cb)"><path fill="#06b6d4" d="M 750 272.320312 C 1011.3125 272.320312 1223.152344 484.15625 1223.152344 745.472656 C 1223.152344 812.472656 1209.195312 876.214844 1184.074219 933.96875 C 1184.320312 932.929688 1184.542969 931.882812 1184.78125 930.839844 C 1201.050781 883.621094 1209.90625 832.953125 1209.90625 780.207031 C 1209.90625 524.941406 1002.972656 318.003906 747.703125 318.003906 C 492.433594 318.003906 285.496094 524.9375 285.496094 780.207031 C 285.496094 814.855469 289.339844 848.601562 296.566406 881.070312 C 283.738281 838.117188 276.84375 792.597656 276.84375 745.46875 C 276.84375 484.15625 488.679688 272.316406 749.996094 272.316406 Z M 750 272.320312 " fill-opacity="1" fill-rule="evenodd"/></g><g clip-path="url(#054eb5dbb2)"><g clip-path="url(#8328bb496e)"><g clip-path="url(#f223667f26)"><g transform="matrix(1, 0, 0, 1, 323, 315)"><g clip-path="url(#4591dff4d1)"><g clip-path="url(#e5c7f115a0)"><g clip-path="url(#c6e246c1e6)"><g clip-path="url(#7ad78f09c1)"><path fill="#06b6d4" d="M -4.410156 133.109375 L 150.355469 -4.113281 L 186.238281 36.355469 L 31.46875 173.578125 Z M -4.410156 133.109375 " fill-opacity="1" fill-rule="nonzero"/></g></g></g></g></g></g></g></g><g clip-path="url(#140bd1662d)"><g clip-path="url(#fbb602a472)"><g clip-path="url(#f39b5af72c)"><g transform="matrix(1, 0, 0, 1, 995, 315)"><g clip-path="url(#357620a175)"><g clip-path="url(#f91474dd35)"><g clip-path="url(#9638cb3dc3)"><g clip-path="url(#0648c7788e)"><path fill="#06b6d4" d="M 32.429688 -4.085938 L 185.230469 135.320312 L 148.773438 175.277344 L -4.023438 35.867188 Z M 32.429688 -4.085938 " fill-opacity="1" fill-rule="nonzero"/></g></g></g></g></g></g></g></g><g clip-path="url(#cdb3f2f743)"><g clip-path="url(#e080bb4437)"><g transform="matrix(1, 0, 0, 1, 646, 231)"><g clip-path="url(#7a467095c3)"><g clip-path="url(#56dea75c2f)"><g clip-path="url(#d8df1843f2)"><path fill="#06b6d4" d="M 0.597656 0.917969 L 207.335938 0.917969 L 207.335938 68.164062 L 0.597656 68.164062 Z M 0.597656 0.917969 " fill-opacity="1" fill-rule="nonzero"/></g></g></g></g></g></g></svg>